<svg width="66" height="63" viewBox="0 0 66 63" fill="none" xmlns="http://www.w3.org/2000/svg">
<rect x="0.5" y="0.701721" width="65" height="61" rx="8.5" fill="white" stroke="#E0E0E0"/>
<path d="M49.25 21.6017H43V18.4017C43 16.6351 41.3203 15.2017 39.25 15.2017H26.75C24.6797 15.2017 23 16.6351 23 18.4017V21.6017H16.75C14.6797 21.6017 13 23.0351 13 24.8017V44.0017C13 45.7684 14.6797 47.2017 16.75 47.2017H49.25C51.3203 47.2017 53 45.7684 53 44.0017V24.8017C53 23.0351 51.3203 21.6017 49.25 21.6017ZM28 19.4684H38V21.6017H28V19.4684ZM40.5 36.0017C40.5 36.2951 40.2188 36.5351 39.875 36.5351H35.5V40.2684C35.5 40.5617 35.2188 40.8017 34.875 40.8017H31.125C30.7812 40.8017 30.5 40.5617 30.5 40.2684V36.5351H26.125C25.7812 36.5351 25.5 36.2951 25.5 36.0017V32.8017C25.5 32.5084 25.7812 32.2684 26.125 32.2684H30.5V28.5351C30.5 28.2417 30.7812 28.0017 31.125 28.0017H34.875C35.2188 28.0017 35.5 28.2417 35.5 28.5351V32.2684H39.875C40.2188 32.2684 40.5 32.5084 40.5 32.8017V36.0017Z" fill="#FF304F"/>
</svg>
