<svg width="66" height="62" viewBox="0 0 66 62" fill="none" xmlns="http://www.w3.org/2000/svg">
<rect x="0.5" y="0.5" width="65" height="61" rx="8.5" fill="white" stroke="#E0E0E0"/>
<path d="M51.5627 34.15L42.4585 20.7714C40.9098 18.5 38.4445 17.2857 35.9445 17.2857C34.3751 17.2857 32.7848 17.7643 31.3959 18.7643C30.0278 19.75 29.0556 21.1071 28.514 22.6071C28.3126 18.3714 24.9445 15 20.7778 15C16.4792 15 13 18.5786 13 23V39C13 43.4214 16.4792 47 20.7778 47C25.0764 47 28.5556 43.4214 28.5556 39V28.35C28.7848 28.9643 29.0626 29.5714 29.4445 30.1357L38.5557 43.5143C40.0973 45.7857 42.5626 47 45.0696 47C46.646 47 48.2293 46.5214 49.6182 45.5214C53.2085 42.9357 54.0766 37.8429 51.5627 34.15ZM24.1112 31H17.4445V23C17.4445 21.1071 18.9375 19.5714 20.7778 19.5714C22.6181 19.5714 24.1112 21.1071 24.1112 23V31ZM37.639 34.2071L33.0834 27.5143C32.5487 26.7286 32.3404 25.7714 32.507 24.8286C32.6667 23.8857 33.1806 23.0571 33.9445 22.5071C34.5348 22.0786 35.2293 21.8571 35.9445 21.8571C37.0904 21.8571 38.1598 22.4286 38.8126 23.3929L43.3682 30.0857L37.639 34.2071Z" fill="#FF304F"/>
</svg>
