<svg width="66" height="62" viewBox="0 0 66 62" fill="none" xmlns="http://www.w3.org/2000/svg">
<rect x="0.5" y="0.5" width="65" height="61" rx="8.5" fill="white" stroke="#E0E0E0"/>
<path d="M52 36H51.2425C49.4606 36 48.5681 33.8456 49.8281 32.5856L50.3644 32.05C50.4572 31.9571 50.5309 31.8469 50.5812 31.7255C50.6314 31.6042 50.6573 31.4741 50.6573 31.3428C50.6573 31.2115 50.6314 31.0814 50.5812 30.9601C50.5309 30.8387 50.4572 30.7285 50.3644 30.6356C50.2715 30.5428 50.1613 30.4691 50.0399 30.4188C49.9186 30.3686 49.7885 30.3427 49.6572 30.3427C49.5259 30.3427 49.3958 30.3686 49.2745 30.4188C49.1531 30.4691 49.0429 30.5428 48.95 30.6356L48.4144 31.1719C47.1544 32.4319 45 31.5394 45 29.7575V29C45 28.7348 44.8946 28.4804 44.7071 28.2929C44.5196 28.1054 44.2652 28 44 28C43.7348 28 43.4804 28.1054 43.2929 28.2929C43.1054 28.4804 43 28.7348 43 29V29.7575C43 31.5394 40.8456 32.4319 39.5856 31.1719L39.05 30.6356C38.8624 30.4481 38.6081 30.3427 38.3428 30.3427C38.0776 30.3427 37.8232 30.4481 37.6356 30.6356C37.4481 30.8232 37.3427 31.0776 37.3427 31.3428C37.3427 31.6081 37.4481 31.8624 37.6356 32.05L38.1719 32.5856C39.4319 33.8456 38.5394 36 36.7575 36H36C35.7348 36 35.4804 36.1054 35.2929 36.2929C35.1054 36.4804 35 36.7348 35 37C35 37.2652 35.1054 37.5196 35.2929 37.7071C35.4804 37.8946 35.7348 38 36 38H36.7575C38.5394 38 39.4319 40.1544 38.1719 41.4144L37.6356 41.95C37.5428 42.0429 37.4691 42.1531 37.4188 42.2745C37.3686 42.3958 37.3427 42.5259 37.3427 42.6572C37.3427 42.7885 37.3686 42.9186 37.4188 43.0399C37.4691 43.1613 37.5428 43.2715 37.6356 43.3644C37.7285 43.4572 37.8387 43.5309 37.9601 43.5812C38.0814 43.6314 38.2115 43.6573 38.3428 43.6573C38.4741 43.6573 38.6042 43.6314 38.7255 43.5812C38.8469 43.5309 38.9571 43.4572 39.05 43.3644L39.5856 42.8281C40.8456 41.5681 43 42.4606 43 44.2425V45C43 45.2652 43.1054 45.5196 43.2929 45.7071C43.4804 45.8946 43.7348 46 44 46C44.2652 46 44.5196 45.8946 44.7071 45.7071C44.8946 45.5196 45 45.2652 45 45V44.2425C45 42.4606 47.1544 41.5681 48.4144 42.8281L48.95 43.3644C49.0429 43.4572 49.1531 43.5309 49.2745 43.5812C49.3958 43.6314 49.5259 43.6573 49.6572 43.6573C49.7885 43.6573 49.9186 43.6314 50.0399 43.5812C50.1613 43.5309 50.2715 43.4572 50.3644 43.3644C50.4572 43.2715 50.5309 43.1613 50.5812 43.0399C50.6314 42.9186 50.6573 42.7885 50.6573 42.6572C50.6573 42.5259 50.6314 42.3958 50.5812 42.2745C50.5309 42.1531 50.4572 42.0429 50.3644 41.95L49.8281 41.4144C48.5681 40.1544 49.4606 38 51.2425 38H52C52.2652 38 52.5196 37.8946 52.7071 37.7071C52.8946 37.5196 53 37.2652 53 37C53 36.7348 52.8946 36.4804 52.7071 36.2929C52.5196 36.1054 52.2652 36 52 36ZM43 38C42.6044 38 42.2178 37.8827 41.8889 37.6629C41.56 37.4432 41.3036 37.1308 41.1522 36.7654C41.0009 36.3999 40.9613 35.9978 41.0384 35.6098C41.1156 35.2219 41.3061 34.8655 41.5858 34.5858C41.8655 34.3061 42.2219 34.1156 42.6098 34.0384C42.9978 33.9613 43.3999 34.0009 43.7654 34.1522C44.1308 34.3036 44.4432 34.56 44.6629 34.8889C44.8827 35.2178 45 35.6044 45 36C45 36.5304 44.7893 37.0391 44.4142 37.4142C44.0391 37.7893 43.5304 38 43 38ZM34.6569 27.3331H35.6669C36.0204 27.3331 36.3595 27.1927 36.6095 26.9427C36.8595 26.6927 37 26.3536 37 26C37 25.6464 36.8595 25.3073 36.6095 25.0573C36.3595 24.8073 36.0204 24.6669 35.6669 24.6669H34.6569C32.2819 24.6669 31.0912 21.7919 32.7712 20.1144L33.4856 19.3994C33.7342 19.149 33.8734 18.8104 33.8727 18.4576C33.8721 18.1048 33.7316 17.7667 33.4821 17.5173C33.2326 17.2679 32.8944 17.1275 32.5417 17.127C32.1889 17.1264 31.8503 17.2657 31.6 17.5144L30.8856 18.2288C29.2056 19.9088 26.3331 18.7194 26.3331 16.3431V15.3331C26.3331 14.9796 26.1927 14.6405 25.9427 14.3905C25.6927 14.1405 25.3536 14 25 14C24.6464 14 24.3073 14.1405 24.0573 14.3905C23.8073 14.6405 23.6669 14.9796 23.6669 15.3331V16.3431C23.6669 18.7181 20.7919 19.9088 19.1144 18.2288L18.4 17.5144C18.1497 17.2657 17.8111 17.1264 17.4583 17.127C17.1056 17.1275 16.7674 17.2679 16.5179 17.5173C16.2684 17.7667 16.1279 18.1048 16.1273 18.4576C16.1266 18.8104 16.2658 19.149 16.5144 19.3994L17.2288 20.1144C18.9088 21.7944 17.7194 24.6669 15.3431 24.6669H14.3331C13.9796 24.6669 13.6405 24.8073 13.3905 25.0573C13.1405 25.3073 13 25.6464 13 26C13 26.3536 13.1405 26.6927 13.3905 26.9427C13.6405 27.1927 13.9796 27.3331 14.3331 27.3331H15.3431C17.7181 27.3331 18.9088 30.2081 17.2288 31.8856L16.5144 32.6C16.3906 32.7238 16.2924 32.8708 16.2253 33.0326C16.1583 33.1943 16.1238 33.3677 16.1238 33.5428C16.1238 33.8964 16.2643 34.2356 16.5144 34.4856C16.7644 34.7357 17.1036 34.8762 17.4572 34.8762C17.8108 34.8762 18.15 34.7357 18.4 34.4856L19.1144 33.7712C20.7944 32.0912 23.6669 33.2806 23.6669 35.6569V36.6669C23.6669 37.0204 23.8073 37.3595 24.0573 37.6095C24.3073 37.8595 24.6464 38 25 38C25.3536 38 25.6927 37.8595 25.9427 37.6095C26.1927 37.3595 26.3331 37.0204 26.3331 36.6669V35.6569C26.3331 33.2819 29.2081 32.0912 30.8856 33.7712L31.6 34.4856C31.85 34.7357 32.1892 34.8762 32.5428 34.8762C32.8964 34.8762 33.2356 34.7357 33.4856 34.4856C33.7357 34.2356 33.8762 33.8964 33.8762 33.5428C33.8762 33.1892 33.7357 32.85 33.4856 32.6L32.7712 31.8856C31.0912 30.2056 32.2806 27.3331 34.6569 27.3331ZM23 26C22.6044 26 22.2178 25.8827 21.8889 25.6629C21.56 25.4432 21.3036 25.1308 21.1522 24.7654C21.0009 24.3999 20.9613 23.9978 21.0384 23.6098C21.1156 23.2219 21.3061 22.8655 21.5858 22.5858C21.8655 22.3061 22.2219 22.1156 22.6098 22.0384C22.9978 21.9613 23.3999 22.0009 23.7654 22.1522C24.1308 22.3036 24.4432 22.56 24.6629 22.8889C24.8827 23.2178 25 23.6044 25 24C25 24.5304 24.7893 25.0391 24.4142 25.4142C24.0391 25.7893 23.5304 26 23 26ZM28 28C27.8022 28 27.6089 27.9414 27.4444 27.8315C27.28 27.7216 27.1518 27.5654 27.0761 27.3827C27.0004 27.2 26.9806 26.9989 27.0192 26.8049C27.0578 26.6109 27.153 26.4327 27.2929 26.2929C27.4327 26.153 27.6109 26.0578 27.8049 26.0192C27.9989 25.9806 28.2 26.0004 28.3827 26.0761C28.5654 26.1518 28.7216 26.28 28.8315 26.4444C28.9414 26.6089 29 26.8022 29 27C29 27.2652 28.8946 27.5196 28.7071 27.7071C28.5196 27.8946 28.2652 28 28 28Z" fill="#28C7FA"/>
</svg>
