<svg width="22" height="14" viewBox="0 0 22 14" fill="none" xmlns="http://www.w3.org/2000/svg">
<path fill-rule="evenodd" clip-rule="evenodd" d="M21.0013 6.75095C21.0013 6.55203 20.9223 6.36127 20.7817 6.22062C20.641 6.07997 20.4503 6.00095 20.2513 6.00095H2.56184L7.28234 1.28195C7.35207 1.21222 7.40739 1.12943 7.44513 1.03832C7.48286 0.947214 7.50229 0.849563 7.50229 0.750947C7.50229 0.652332 7.48286 0.554681 7.44513 0.463572C7.40739 0.372463 7.35207 0.289679 7.28234 0.219947C7.21261 0.150215 7.12983 0.0949012 7.03872 0.0571625C6.94761 0.0194239 6.84996 0 6.75134 0C6.65272 0 6.55507 0.0194239 6.46396 0.0571625C6.37286 0.0949012 6.29007 0.150215 6.22034 0.219947L0.220341 6.21995C0.150496 6.28962 0.0950815 6.37238 0.0572719 6.4635C0.0194622 6.55462 0 6.6523 0 6.75095C0 6.8496 0.0194622 6.94728 0.0572719 7.0384C0.0950815 7.12951 0.150496 7.21228 0.220341 7.28195L6.22034 13.2819C6.29007 13.3517 6.37286 13.407 6.46396 13.4447C6.55507 13.4825 6.65272 13.5019 6.75134 13.5019C6.84996 13.5019 6.94761 13.4825 7.03872 13.4447C7.12983 13.407 7.21261 13.3517 7.28234 13.2819C7.35207 13.2122 7.40739 13.1294 7.44513 13.0383C7.48286 12.9472 7.50229 12.8496 7.50229 12.7509C7.50229 12.6523 7.48286 12.5547 7.44513 12.4636C7.40739 12.3725 7.35207 12.2897 7.28234 12.2199L2.56184 7.50095H20.2513C20.4503 7.50095 20.641 7.42193 20.7817 7.28128C20.9223 7.14063 21.0013 6.94986 21.0013 6.75095Z" fill="black"/>
</svg>
