<svg width="128" height="120" viewBox="0 0 128 120" fill="none" xmlns="http://www.w3.org/2000/svg">
<path d="M65.0101 108.816C64.704 108.816 64.4079 108.816 64.0335 108.802C52.7837 108.577 41.9545 104.485 33.3669 97.2149C24.7793 89.9444 18.9571 79.9386 16.8794 68.8802V68.8802C16.6772 67.802 16.5116 66.7157 16.3825 65.6214C16.155 63.703 16.0409 61.7729 16.0408 59.8412C16.0408 48.7364 19.6613 38.2666 26.5092 29.5707C30.6617 24.2734 35.8654 19.8927 41.793 16.7041C47.7206 13.5155 54.2439 11.588 60.9526 11.0428C60.8672 9.74721 61.095 8.36765 60.9953 7.57324C60.9127 6.88702 60.665 5.95165 60.4329 4.92944C45.2108 6.17517 31.2473 13.6495 21.6901 25.7737C15.5699 33.4963 11.6618 42.736 10.3831 52.5063C10.236 53.614 10.1235 54.7292 10.0457 55.852C9.95078 57.1722 9.90332 58.501 9.90332 59.8383C9.90332 61.1756 9.95078 62.5073 10.0457 63.8332C10.1254 64.956 10.2403 66.0727 10.3902 67.1831C11.9726 78.9331 17.301 89.8598 25.5847 98.3418C33.8685 106.824 44.6662 112.409 56.3754 114.269C57.7991 112.012 63.3415 110.016 65.6365 108.812C65.4358 108.815 65.2237 108.816 65.0101 108.816ZM120.031 56.6649C119.966 55.5184 119.866 54.3794 119.731 53.2481C118.692 44.4826 115.546 36.0989 110.563 28.8133C100.78 14.4739 85.2493 5.72956 67.9856 4.81839L67.7137 4.80273C67.3336 5.99579 66.9264 7.01373 66.8723 7.52198C66.7854 8.33206 67.0147 9.65752 66.9933 10.9104C67.2126 10.9203 67.4304 10.9303 67.6468 10.9431C82.9984 11.7532 96.794 19.5265 105.496 32.27C111.047 40.3909 114.007 50.003 113.986 59.8398C113.985 61.5994 113.89 63.3578 113.702 65.1074C113.587 66.2074 113.434 67.2989 113.243 68.3819C111.519 78.0548 106.93 86.9871 100.07 94.0219C93.2108 101.057 84.3972 105.87 74.7709 107.838C74.5773 110.445 69.8663 113.356 65.9113 114.944C66.6317 114.932 67.3208 114.908 67.9628 114.871C80.9076 114.172 93.1922 108.935 102.66 100.079C112.127 91.223 118.172 79.315 119.732 66.4457C119.868 65.3124 119.968 64.1735 120.031 63.0288C120.091 61.9743 120.121 60.9132 120.121 59.8454C120.121 58.7777 120.091 57.7175 120.031 56.6649Z" fill="white"/>
<path d="M56.7026 69.7884C54.4773 70.6782 52.2607 71.6392 50.3458 72.6543C37.2635 72.1076 25.6234 70.7907 16.8805 68.8801C15.5157 68.583 14.2225 68.2703 13.001 67.9419C12.0794 67.6951 11.2114 67.4436 10.397 67.1874C3.91499 65.1415 0.754395 62.7284 0.754395 59.844C0.754395 56.9596 3.91072 54.5535 10.3842 52.5091C11.2014 52.251 12.0718 51.9985 12.9953 51.7517L13.7926 54.713C12.3689 55.0945 11.1231 55.4775 10.0525 55.8519C5.22621 57.5419 3.82672 59.0923 3.82672 59.8411C3.82672 60.59 5.23332 62.1432 10.0582 63.8346C11.1302 64.2118 12.3703 64.5934 13.8011 64.9735C14.624 65.1947 15.4867 65.4092 16.3894 65.617C25.481 67.7184 38.4893 69.1763 52.6806 69.6689C54.0104 69.7211 55.351 69.7609 56.7026 69.7884Z" fill="white"/>
<path d="M127.217 59.8412C127.217 62.3853 124.764 64.5565 119.732 66.4457C118.941 66.7428 118.086 67.0337 117.17 67.3184C115.963 67.6886 114.659 68.044 113.256 68.3848C104.624 70.4819 92.4799 71.9739 78.8296 72.5946C80.7829 71.534 82.5568 70.4021 83.9805 69.2447C95.9025 68.4787 106.321 67.0337 113.709 65.1074C114.605 64.8749 115.455 64.6348 116.26 64.387C117.541 64.0008 118.8 63.5455 120.031 63.0231C124.008 61.3048 124.15 60.0149 124.15 59.8412C124.15 59.6675 124.008 58.3748 120.031 56.6649C118.8 56.1463 117.542 55.6948 116.263 55.3124L117.16 52.3796C118.081 52.6644 118.938 52.9534 119.731 53.2467C124.762 55.1231 127.217 57.2914 127.217 59.8412Z" fill="white"/>
<path d="M65.0143 119.26C64.8249 119.267 64.6356 119.272 64.4448 119.273H64.7879C64.8962 119.278 65.0047 119.274 65.1125 119.263H65.0143" fill="white"/>
<path d="M63.9408 119.25C63.856 119.103 63.8072 118.938 63.7984 118.769C63.7415 118.342 63.7472 117.915 63.6973 117.498C63.6973 117.567 63.6276 119.206 63.4126 119.274C63.4126 119.274 63.8881 119.274 63.9351 119.257" fill="white"/>
<path d="M90.1639 55.2484C90.2522 69.0767 68.6989 74.7045 68.4811 74.7529C68.2675 74.5137 68.2675 74.5137 68.2903 72.7797C68.3586 67.6288 68.3586 67.6288 68.5395 67.4081C70.2294 65.3437 72.96 65.6128 75.0699 64.4938C82.2026 60.7125 82.3934 55.8221 81.3811 53.5314C80.1867 50.8264 76.4922 47.3497 65.6707 46.1638C60.2023 45.5658 47.3991 44.1621 43.0483 37.5875C42.4831 36.7104 42.1141 35.7217 41.9663 34.6889C40.8729 26.971 57.9515 20.5858 60.7362 20.0989C60.1667 27.6729 60.1667 27.6729 58.2049 28.3363C55.7348 29.1721 50.097 31.4144 51.1377 34.1293C52.0346 36.4727 58.2818 37.8395 68.0711 39.2831C73.5153 40.0875 90.0813 42.532 90.1639 55.2484" fill="white"/>
<path d="M73.1606 107.375C72.2665 110.203 67.9115 111.88 66.4807 112.431L66.3112 112.288C66.5447 109.845 66.559 109.699 67.4915 108.948C67.9471 108.58 69.3423 107.459 67.5698 105.452C63.1563 100.445 56.5177 99.0025 51.3169 95.2596C45.4442 91.0355 42.4901 85.6768 43.7927 81.6107C46.2244 74.0182 58.9693 70.9757 59.0946 70.9558L59.301 70.9843C59.3181 71.4868 59.3295 72.1574 59.3266 72.66C59.3038 77.8451 59.3038 77.8451 59.2839 77.8749C59.1729 78.0415 59.1729 78.0415 57.957 78.5412C57.3591 78.7875 55.5368 79.5378 54.1515 80.4134C49.3038 83.4786 49.5217 87.5076 54.7637 91.7573C59.3836 95.5017 65.2634 97.2129 69.8121 101.073C71.2842 102.323 74.0248 104.649 73.1635 107.375" fill="white"/>
<path d="M66.0095 4.19038C66.0302 4.48084 66.033 4.77229 66.0181 5.0631C65.9811 5.89738 65.1382 6.38571 65.0984 7.21714C64.9631 10.0033 65.3831 12.761 65.5084 15.5329C65.9526 25.2539 66.1206 36.5252 66.1206 36.6035C66.1152 36.7397 66.0888 36.8741 66.0423 37.0022C65.5682 37.1659 61.6061 36.4199 61.579 36.1608C61.5681 36.0958 61.5614 36.0301 61.5591 35.9643L62.1855 16.8313C62.6126 6.91247 62.6126 6.91247 62.5514 6.83132C61.2558 5.21401 61.8894 3.19949 62.382 2.14311C63.0753 0.6582 63.6975 0.559965 63.9324 0.522949C65.5739 1.01555 66.0038 4.15763 66.0067 4.18895" fill="white"/>
<path d="M86.686 25.5928C88.4143 30.7509 79.3255 30.8434 75.8659 28.9656C74.2429 28.0857 73.83 26.7232 73.6094 25.9915C73.504 25.6441 73.504 25.6441 72.59 25.6783C70.5556 25.7523 68.7973 25.9886 67.8534 26.1153C67.6099 26.1481 67.543 26.1153 67.4804 26.0684C67.4177 26.0214 67.4092 26.0143 67.1672 22.4337H67.1814C66.9579 19.0453 66.9579 19.0453 67.0618 18.9471C67.2953 18.725 71.0097 18.4345 71.4027 18.4103C83.5538 17.8864 86.6575 25.5145 86.686 25.5928Z" fill="white"/>
<path d="M66.2417 50.328C66.384 79.8554 65.6722 96.0726 65.6722 96.1951C64.7439 95.9616 61.7926 94.3286 61.7599 93.9442C61.7271 93.5598 60.8786 48.893 61.5221 47.7255L61.8069 47.6558C66.2331 48.1939 66.2331 48.1939 66.2488 50.328" fill="white"/>
<path d="M65.2507 105.681C64.993 112.109 64.4676 118.239 64.1017 119.064C63.817 119.146 63.2475 118.921 63.2404 118.921C62.6553 116.494 62.0089 103.96 62.0773 103.118C65.2734 105.01 65.2621 105.334 65.2507 105.681Z" fill="white"/>
<path d="M64.4449 119.273C58.7715 119.303 56.0451 116.306 58.2262 114.132C59.0761 113.357 60.0355 112.711 61.0736 112.216C61.1376 112.918 61.3583 113.597 61.3711 114.306C61.3711 114.504 61.2587 114.605 61.1177 114.707C60.6564 115.045 59.2498 116.073 59.9503 117.402C60.9312 119.265 64.395 119.274 64.7908 119.269H64.4477" fill="white"/>
</svg>
