<svg width="45" height="42" viewBox="0 0 45 42" fill="none" xmlns="http://www.w3.org/2000/svg">
<rect x="0.5" y="0.5" width="44" height="41" rx="8.5" fill="white" stroke="#E0E0E0"/>
<path d="M22.1875 30.0011C22.8837 30.0011 23.5514 29.7246 24.0437 29.2323C24.5359 28.74 24.8125 28.0723 24.8125 27.3761H19.5625C19.5625 28.0723 19.8391 28.74 20.3313 29.2323C20.8236 29.7246 21.4913 30.0011 22.1875 30.0011ZM22.1875 11.5185L21.1414 11.7298C19.9549 11.9716 18.8883 12.6159 18.1222 13.5537C17.3562 14.4915 16.9376 15.6652 16.9375 16.8761C16.9375 17.7004 16.7616 19.7597 16.3351 21.7875C16.1251 22.7942 15.8416 23.8429 15.4649 24.7511H28.9101C28.5334 23.8429 28.2512 22.7955 28.0399 21.7875C27.6134 19.7597 27.4375 17.7004 27.4375 16.8761C27.4371 15.6654 27.0184 14.4921 26.2524 13.5545C25.4863 12.617 24.4199 11.9729 23.2336 11.7311L22.1875 11.5172V11.5185ZM30.3512 24.7511C30.6439 25.3378 30.9826 25.8025 31.375 26.0636H13C13.3924 25.8025 13.7311 25.3378 14.0237 24.7511C15.205 22.3886 15.625 18.0311 15.625 16.8761C15.625 13.6999 17.8825 11.0486 20.8816 10.4436C20.8632 10.2611 20.8834 10.0768 20.9407 9.90254C20.998 9.7283 21.0911 9.568 21.2142 9.43199C21.3372 9.29597 21.4874 9.18725 21.6551 9.11285C21.8227 9.03844 22.0041 9 22.1875 9C22.3709 9 22.5523 9.03844 22.7199 9.11285C22.8876 9.18725 23.0378 9.29597 23.1608 9.43199C23.2839 9.568 23.377 9.7283 23.4343 9.90254C23.4916 10.0768 23.5118 10.2611 23.4934 10.4436C24.9769 10.7453 26.3106 11.5505 27.2685 12.7227C28.2264 13.895 28.7498 15.3623 28.75 16.8761C28.75 18.0311 29.17 22.3886 30.3512 24.7511Z" fill="black"/>
</svg>
