<svg width="66" height="62" viewBox="0 0 66 62" fill="none" xmlns="http://www.w3.org/2000/svg">
<rect x="0.5" y="0.5" width="65" height="61" rx="8.5" fill="white" stroke="#E0E0E0"/>
<path d="M13 17.4286C13 16.5193 13.4515 15.6472 14.2553 15.0042C15.059 14.3612 16.1491 14 17.2857 14H25.8571C26.9938 14 28.0839 14.3612 28.8876 15.0042C29.6913 15.6472 30.1429 16.5193 30.1429 17.4286V24.2857C30.1429 25.195 29.6913 26.0671 28.8876 26.7101C28.0839 27.3531 26.9938 27.7143 25.8571 27.7143H17.2857C16.1491 27.7143 15.059 27.3531 14.2553 26.7101C13.4515 26.0671 13 25.195 13 24.2857V17.4286ZM17.2857 16.2857C16.9068 16.2857 16.5435 16.4061 16.2756 16.6204C16.0077 16.8348 15.8571 17.1255 15.8571 17.4286V24.2857C15.8571 24.5888 16.0077 24.8795 16.2756 25.0938C16.5435 25.3082 16.9068 25.4286 17.2857 25.4286H25.8571C26.236 25.4286 26.5994 25.3082 26.8673 25.0938C27.1352 24.8795 27.2857 24.5888 27.2857 24.2857V17.4286C27.2857 17.1255 27.1352 16.8348 26.8673 16.6204C26.5994 16.4061 26.236 16.2857 25.8571 16.2857H17.2857ZM35.8571 17.4286C35.8571 16.5193 36.3087 15.6472 37.1124 15.0042C37.9161 14.3612 39.0062 14 40.1429 14H48.7143C49.8509 14 50.941 14.3612 51.7447 15.0042C52.5485 15.6472 53 16.5193 53 17.4286V24.2857C53 25.195 52.5485 26.0671 51.7447 26.7101C50.941 27.3531 49.8509 27.7143 48.7143 27.7143H40.1429C39.0062 27.7143 37.9161 27.3531 37.1124 26.7101C36.3087 26.0671 35.8571 25.195 35.8571 24.2857V17.4286ZM40.1429 16.2857C39.764 16.2857 39.4006 16.4061 39.1327 16.6204C38.8648 16.8348 38.7143 17.1255 38.7143 17.4286V24.2857C38.7143 24.5888 38.8648 24.8795 39.1327 25.0938C39.4006 25.3082 39.764 25.4286 40.1429 25.4286H48.7143C49.0932 25.4286 49.4565 25.3082 49.7244 25.0938C49.9923 24.8795 50.1429 24.5888 50.1429 24.2857V17.4286C50.1429 17.1255 49.9923 16.8348 49.7244 16.6204C49.4565 16.4061 49.0932 16.2857 48.7143 16.2857H40.1429ZM13 35.7143C13 34.805 13.4515 33.9329 14.2553 33.2899C15.059 32.6469 16.1491 32.2857 17.2857 32.2857H25.8571C26.9938 32.2857 28.0839 32.6469 28.8876 33.2899C29.6913 33.9329 30.1429 34.805 30.1429 35.7143V42.5714C30.1429 43.4807 29.6913 44.3528 28.8876 44.9958C28.0839 45.6388 26.9938 46 25.8571 46H17.2857C16.1491 46 15.059 45.6388 14.2553 44.9958C13.4515 44.3528 13 43.4807 13 42.5714V35.7143ZM17.2857 34.5714C16.9068 34.5714 16.5435 34.6918 16.2756 34.9062C16.0077 35.1205 15.8571 35.4112 15.8571 35.7143V42.5714C15.8571 42.8745 16.0077 43.1652 16.2756 43.3796C16.5435 43.5939 16.9068 43.7143 17.2857 43.7143H25.8571C26.236 43.7143 26.5994 43.5939 26.8673 43.3796C27.1352 43.1652 27.2857 42.8745 27.2857 42.5714V35.7143C27.2857 35.4112 27.1352 35.1205 26.8673 34.9062C26.5994 34.6918 26.236 34.5714 25.8571 34.5714H17.2857ZM35.8571 35.7143C35.8571 34.805 36.3087 33.9329 37.1124 33.2899C37.9161 32.6469 39.0062 32.2857 40.1429 32.2857H48.7143C49.8509 32.2857 50.941 32.6469 51.7447 33.2899C52.5485 33.9329 53 34.805 53 35.7143V42.5714C53 43.4807 52.5485 44.3528 51.7447 44.9958C50.941 45.6388 49.8509 46 48.7143 46H40.1429C39.0062 46 37.9161 45.6388 37.1124 44.9958C36.3087 44.3528 35.8571 43.4807 35.8571 42.5714V35.7143ZM40.1429 34.5714C39.764 34.5714 39.4006 34.6918 39.1327 34.9062C38.8648 35.1205 38.7143 35.4112 38.7143 35.7143V42.5714C38.7143 42.8745 38.8648 43.1652 39.1327 43.3796C39.4006 43.5939 39.764 43.7143 40.1429 43.7143H48.7143C49.0932 43.7143 49.4565 43.5939 49.7244 43.3796C49.9923 43.1652 50.1429 42.8745 50.1429 42.5714V35.7143C50.1429 35.4112 49.9923 35.1205 49.7244 34.9062C49.4565 34.6918 49.0932 34.5714 48.7143 34.5714H40.1429Z" fill="#FCB1B1"/>
</svg>
