<svg width="66" height="62" viewBox="0 0 66 62" fill="none" xmlns="http://www.w3.org/2000/svg">
<rect x="0.5" y="0.5" width="65" height="61" rx="8.5" fill="white" stroke="#E0E0E0"/>
<path d="M49.25 21.4H43V18.2C43 16.4333 41.3203 15 39.25 15H26.75C24.6797 15 23 16.4333 23 18.2V21.4H16.75C14.6797 21.4 13 22.8333 13 24.6V43.8C13 45.5667 14.6797 47 16.75 47H49.25C51.3203 47 53 45.5667 53 43.8V24.6C53 22.8333 51.3203 21.4 49.25 21.4ZM28 19.2667H38V21.4H28V19.2667ZM40.5 35.8C40.5 36.0933 40.2188 36.3333 39.875 36.3333H35.5V40.0667C35.5 40.36 35.2188 40.6 34.875 40.6H31.125C30.7812 40.6 30.5 40.36 30.5 40.0667V36.3333H26.125C25.7812 36.3333 25.5 36.0933 25.5 35.8V32.6C25.5 32.3067 25.7812 32.0667 26.125 32.0667H30.5V28.3333C30.5 28.04 30.7812 27.8 31.125 27.8H34.875C35.2188 27.8 35.5 28.04 35.5 28.3333V32.0667H39.875C40.2188 32.0667 40.5 32.3067 40.5 32.6V35.8Z" fill="#775ADA"/>
</svg>
